<svg width="40" height="40" viewBox="0 0 40 40" fill="none" xmlns="http://www.w3.org/2000/svg">
<path d="M10.9626 25.8027C8.60467 27.2067 2.42227 30.0736 6.18777 33.6611C8.02719 35.4134 10.0758 36.6667 12.6515 36.6667H27.3485C29.9242 36.6667 31.9728 35.4134 33.8122 33.6611C37.5777 30.0736 31.3953 27.2067 29.0373 25.8027C23.508 22.5102 16.492 22.5102 10.9626 25.8027Z" stroke="#012E33" stroke-width="2.5" stroke-linecap="round" stroke-linejoin="round"/>
<path d="M27.5 10.8334C27.5 14.9755 24.1422 18.3334 20 18.3334C15.8579 18.3334 12.5 14.9755 12.5 10.8334C12.5 6.69124 15.8579 3.33337 20 3.33337C24.1422 3.33337 27.5 6.69124 27.5 10.8334Z" stroke="#012E33" stroke-width="2.5"/>
</svg>
