<svg width="40" height="40" viewBox="0 0 40 40" fill="none" xmlns="http://www.w3.org/2000/svg">
<path d="M36.4956 11.0514C37.0293 12.5472 36.281 13.5713 34.8323 14.5801C33.6635 15.394 32.1745 16.2758 30.5966 17.7832C29.0498 19.2611 27.5403 21.0411 26.1986 22.7931C24.573 24.9161 23.0356 27.1336 21.6825 29.4426C21.1723 30.3171 20.2548 30.8464 19.2711 30.8332C18.2873 30.8199 17.3835 30.2662 16.8953 29.3779C15.6474 27.1067 14.6844 26.2099 14.2418 25.8877C13.0138 24.9939 11.668 24.8392 11.668 22.8892C11.668 21.2937 12.9117 20.0004 14.4459 20.0004C15.5438 20.0444 16.5489 20.5147 17.4278 21.1546C17.9981 21.5697 18.6021 22.1186 19.2305 22.8412C19.9678 21.7517 20.8565 20.4947 21.8525 19.1939C23.2991 17.3049 25.0066 15.2782 26.8378 13.5287C28.6378 11.8089 30.719 10.1991 32.925 9.34795C34.3633 8.79296 35.962 9.55563 36.4956 11.0514Z" stroke="#012E33" stroke-width="2.5" stroke-linecap="round" stroke-linejoin="round"/>
<path d="M7.39805 20.1259C7.13398 20.0394 6.8953 19.9849 6.68623 19.9522C6.58195 19.9359 6.4858 19.9251 6.3983 19.9184L6.16348 19.9091C4.59971 19.9091 3.33203 21.2134 3.33203 22.8222C3.33203 24.2782 4.37026 25.4847 5.72661 25.7009C5.77403 25.7259 5.85098 25.7707 5.95548 25.8461C6.4066 26.1709 7.38815 27.0754 8.66013 29.3656C9.15773 30.2616 10.0789 30.8198 11.0817 30.8333C11.7687 30.8424 12.424 30.5946 12.9358 30.1541M24.9987 9.16675C22.7502 10.0251 20.6289 11.6485 18.7942 13.3828C18.1535 13.9884 17.5277 14.6269 16.9224 15.2815" stroke="#012E33" stroke-width="2.5" stroke-linecap="round" stroke-linejoin="round"/>
</svg>
