<svg width="40" height="40" viewBox="0 0 40 40" fill="none" xmlns="http://www.w3.org/2000/svg">
<path d="M8.33203 26.6666L16.6654 21.6666M23.332 18.3333L31.6654 13.3333M19.9987 8.33325V16.6666M19.9987 23.3333V31.6666M8.33203 13.3333L16.6654 18.3333M23.332 21.6666L31.6654 26.6666" stroke="#012E33" stroke-width="2.5" stroke-linejoin="round"/>
<path d="M34.1654 14.9999V24.1666M22.4987 34.1666L31.6654 29.1666M7.4987 29.1666L17.4987 34.1666M5.83203 24.9999V14.9999M7.4987 10.8333L17.4987 5.83325M32.4987 10.8333L22.4987 5.83325" stroke="#012E33" stroke-width="2.5" stroke-linejoin="round"/>
<path d="M20 8.33337C21.3807 8.33337 22.5 7.21409 22.5 5.83337C22.5 4.45266 21.3807 3.33337 20 3.33337C18.6193 3.33337 17.5 4.45266 17.5 5.83337C17.5 7.21409 18.6193 8.33337 20 8.33337Z" stroke="#012E33" stroke-width="2.5" stroke-linejoin="round"/>
<path d="M20 36.6666C21.3807 36.6666 22.5 35.5473 22.5 34.1666C22.5 32.7859 21.3807 31.6666 20 31.6666C18.6193 31.6666 17.5 32.7859 17.5 34.1666C17.5 35.5473 18.6193 36.6666 20 36.6666Z" stroke="#012E33" stroke-width="2.5" stroke-linejoin="round"/>
<path d="M5.83203 15C7.21274 15 8.33203 13.8807 8.33203 12.5C8.33203 11.1193 7.21274 10 5.83203 10C4.45132 10 3.33203 11.1193 3.33203 12.5C3.33203 13.8807 4.45132 15 5.83203 15Z" stroke="#012E33" stroke-width="2.5" stroke-linejoin="round"/>
<path d="M34.168 15C35.5487 15 36.668 13.8807 36.668 12.5C36.668 11.1193 35.5487 10 34.168 10C32.7873 10 31.668 11.1193 31.668 12.5C31.668 13.8807 32.7873 15 34.168 15Z" stroke="#012E33" stroke-width="2.5" stroke-linejoin="round"/>
<path d="M34.168 30C35.5487 30 36.668 28.8807 36.668 27.5C36.668 26.1193 35.5487 25 34.168 25C32.7873 25 31.668 26.1193 31.668 27.5C31.668 28.8807 32.7873 30 34.168 30Z" stroke="#012E33" stroke-width="2.5" stroke-linejoin="round"/>
<path d="M5.83203 30C7.21274 30 8.33203 28.8807 8.33203 27.5C8.33203 26.1193 7.21274 25 5.83203 25C4.45132 25 3.33203 26.1193 3.33203 27.5C3.33203 28.8807 4.45132 30 5.83203 30Z" stroke="#012E33" stroke-width="2.5" stroke-linejoin="round"/>
<path d="M20.0013 16.25L23.3346 18.125V21.875L20.0013 23.75L16.668 21.875V18.125L20.0013 16.25Z" stroke="#012E33" stroke-width="2.5" stroke-linejoin="round"/>
</svg>
