<svg width="40" height="40" viewBox="0 0 40 40" fill="none" xmlns="http://www.w3.org/2000/svg">
<path d="M13.994 4.25328C16.4521 2.7302 18.5976 3.34398 19.8865 4.32166C20.415 4.72253 20.6791 4.92298 20.8346 4.92298C20.9901 4.92298 21.2543 4.72253 21.7828 4.32166C23.0716 3.34398 25.2171 2.7302 27.6753 4.25328C30.9015 6.25215 31.6315 12.8465 24.1901 18.41C22.7728 19.4697 22.0641 19.9993 20.8346 19.9993C19.6051 19.9993 18.8965 19.4697 17.4791 18.41C10.0379 12.8465 10.7679 6.25215 13.994 4.25328Z" stroke="#012E33" stroke-width="2.5" stroke-linecap="round"/>
<path d="M6.66797 23.3333H10.6593C11.1496 23.3333 11.6331 23.4438 12.0716 23.6559L15.4749 25.3026C15.9134 25.5148 16.3969 25.6251 16.8871 25.6251H18.6248C20.3055 25.6251 21.668 26.9436 21.668 28.5699C21.668 28.6356 21.623 28.6934 21.5576 28.7114L17.3228 29.8824C16.5631 30.0924 15.7496 30.0193 15.043 29.6773L11.4048 27.9171" stroke="#012E33" stroke-width="2.5" stroke-linecap="round" stroke-linejoin="round"/>
<path d="M21.668 27.5L29.3226 25.1482C30.6796 24.7254 32.1465 25.2267 32.9965 26.4039C33.6111 27.2549 33.3608 28.4737 32.4655 28.9904L19.9395 36.2175C19.1428 36.6772 18.2028 36.7894 17.3266 36.5294L6.66797 33.3665" stroke="#012E33" stroke-width="2.5" stroke-linecap="round" stroke-linejoin="round"/>
</svg>
