<svg width="40" height="40" viewBox="0 0 40 40" fill="none" xmlns="http://www.w3.org/2000/svg">
<path d="M34.6233 30C35.8722 30 36.8655 29.2142 37.7573 28.1152C39.5832 25.8657 36.5855 24.068 35.4422 23.1877C34.28 22.2927 32.9823 21.7857 31.6667 21.6667M30 18.3333C32.3012 18.3333 34.1667 16.4678 34.1667 14.1667C34.1667 11.8655 32.3012 10 30 10" stroke="#012E33" stroke-width="2.5" stroke-linecap="round"/>
<path d="M5.37791 30C4.12906 30 3.13576 29.2142 2.24387 28.1152C0.41812 25.8657 3.41576 24.068 4.55904 23.1877C5.72126 22.2927 7.01894 21.7857 8.33464 21.6667M9.16797 18.3333C6.86679 18.3333 5.00131 16.4678 5.00131 14.1667C5.00131 11.8655 6.86679 10 9.16797 10" stroke="#012E33" stroke-width="2.5" stroke-linecap="round"/>
<path d="M13.4743 25.1853C11.7713 26.2383 7.30627 28.3884 10.0258 31.0789C11.3543 32.3933 12.8338 33.3333 14.694 33.3333H25.3087C27.1688 33.3333 28.6483 32.3933 29.9768 31.0789C32.6963 28.3884 28.2313 26.2383 26.5283 25.1853C22.5348 22.7159 17.4677 22.7159 13.4743 25.1853Z" stroke="#012E33" stroke-width="2.5" stroke-linecap="round" stroke-linejoin="round"/>
<path d="M25.8347 12.5001C25.8347 15.7217 23.223 18.3334 20.0013 18.3334C16.7797 18.3334 14.168 15.7217 14.168 12.5001C14.168 9.27841 16.7797 6.66675 20.0013 6.66675C23.223 6.66675 25.8347 9.27841 25.8347 12.5001Z" stroke="#012E33" stroke-width="2.5"/>
</svg>
