<svg width="213" height="84" viewBox="0 0 213 84" fill="none" xmlns="http://www.w3.org/2000/svg">
<g id="Frame 31">
<g id="Logo">
<g id="Union">
<path d="M96.5715 29.9569C97.0976 30.5094 97.9001 30.7857 98.9787 30.7857C100.057 30.7857 100.847 30.5094 101.347 29.9569C101.846 29.3781 102.096 28.6678 102.096 27.8259C102.096 26.9314 101.846 26.2079 101.347 25.6554C100.847 25.1029 100.057 24.8267 98.9787 24.8267C97.9001 24.8267 97.0976 25.1029 96.5715 25.6554C96.0716 26.2079 95.8216 26.9314 95.8216 27.8259C95.8216 28.6678 96.0716 29.3781 96.5715 29.9569Z" fill="#012E33"/>
<path d="M71.5195 33.3508L78.2283 54.7795H87.0287L92.8299 33.3508H87.5417L83.1768 50.2807H82.2449L77.1628 33.3508H71.5195Z" fill="#012E33"/>
<path d="M114.575 55.4504C111.628 55.4504 109.313 54.8321 107.629 53.5956C105.971 52.3328 105.103 50.5964 105.024 48.3864H109.957C110.036 49.1231 110.444 49.794 111.181 50.3991C111.917 51.0042 113.075 51.3067 114.653 51.3067C115.969 51.3067 117.008 51.0699 117.771 50.5964C118.56 50.1228 118.955 49.4783 118.955 48.6627C118.955 47.9523 118.652 47.3867 118.047 46.9657C117.469 46.5448 116.469 46.2685 115.048 46.137L113.154 45.9397C110.76 45.6766 108.918 44.9926 107.629 43.8876C106.34 42.7826 105.695 41.3093 105.695 39.4677C105.695 37.9943 106.064 36.7578 106.8 35.7581C107.537 34.7583 108.55 34.0085 109.839 33.5086C111.154 32.9825 112.654 32.7194 114.338 32.7194C116.969 32.7194 119.1 33.2982 120.731 34.4558C122.362 35.6134 123.217 37.3103 123.296 39.5466H118.363C118.31 38.8099 117.942 38.1785 117.258 37.6523C116.574 37.1261 115.587 36.8631 114.298 36.8631C113.141 36.8631 112.246 37.0867 111.615 37.5339C110.983 37.9812 110.668 38.56 110.668 39.2703C110.668 39.9544 110.918 40.4806 111.417 40.8489C111.944 41.2172 112.786 41.4671 113.943 41.5987L115.837 41.796C118.363 42.0591 120.336 42.7563 121.757 43.8876C123.204 45.0189 123.927 46.5448 123.927 48.4653C123.927 49.886 123.533 51.1226 122.744 52.1749C121.981 53.201 120.902 54.0034 119.508 54.5822C118.113 55.161 116.469 55.4504 114.575 55.4504Z" fill="#012E33"/>
<path d="M127.117 29.9569C127.643 30.5094 128.446 30.7857 129.524 30.7857C130.603 30.7857 131.392 30.5094 131.892 29.9569C132.392 29.3781 132.642 28.6678 132.642 27.8259C132.642 26.9314 132.392 26.2079 131.892 25.6554C131.392 25.1029 130.603 24.8267 129.524 24.8267C128.446 24.8267 127.643 25.1029 127.117 25.6554C126.617 26.2079 126.367 26.9314 126.367 27.8259C126.367 28.6678 126.617 29.3781 127.117 29.9569Z" fill="#012E33"/>
<path fill-rule="evenodd" clip-rule="evenodd" d="M147.646 55.5293C145.752 55.5293 144.081 55.2268 142.634 54.6217C141.187 54.0166 139.964 53.201 138.964 52.1749C137.964 51.1226 137.201 49.9387 136.675 48.6232C136.175 47.3078 135.925 45.9397 135.925 44.519V43.6903C135.925 42.2169 136.188 40.8226 136.715 39.5071C137.267 38.1654 138.043 36.9814 139.043 35.9554C140.069 34.903 141.305 34.0874 142.752 33.5086C144.199 32.9035 145.831 32.601 147.646 32.601C149.461 32.601 151.092 32.9035 152.539 33.5086C153.986 34.0874 155.21 34.903 156.21 35.9554C157.236 36.9814 158.012 38.1654 158.538 39.5071C159.064 40.8226 159.327 42.2169 159.327 43.6903V44.519C159.327 45.9397 159.064 47.3078 158.538 48.6232C158.038 49.9387 157.288 51.1226 156.288 52.1749C155.289 53.201 154.065 54.0166 152.618 54.6217C151.171 55.2268 149.514 55.5293 147.646 55.5293ZM147.646 50.8332C148.988 50.8332 150.119 50.5438 151.04 49.965C151.961 49.3599 152.658 48.5574 153.131 47.5577C153.605 46.5316 153.842 45.374 153.842 44.0849C153.842 42.7694 153.592 41.6118 153.092 40.6121C152.618 39.586 151.908 38.7836 150.961 38.2048C150.04 37.5997 148.935 37.2972 147.646 37.2972C146.357 37.2972 145.239 37.5997 144.292 38.2048C143.371 38.7836 142.66 39.586 142.161 40.6121C141.661 41.6118 141.411 42.7694 141.411 44.0849C141.411 45.374 141.647 46.5316 142.121 47.5577C142.621 48.5574 143.331 49.3599 144.252 49.965C145.173 50.5438 146.304 50.8332 147.646 50.8332Z" fill="#012E33"/>
<path d="M166.972 37.0998C166.783 37.5713 166.625 38.0818 166.498 38.6314V33.3508H162.157V54.7795H167.643V42.1906C167.643 40.7963 168.05 39.6913 168.866 38.8757C169.708 38.0338 170.8 37.6129 172.141 37.6129C173.457 37.6129 174.483 38.0207 175.22 38.8362C175.983 39.6518 176.364 40.7173 176.364 42.0328V54.7795H181.849V42.5063C181.849 39.244 181.192 36.7973 179.876 35.1661C178.561 33.5086 176.627 32.6799 174.075 32.6799H173.838C172.128 32.6799 170.694 33.0482 169.537 33.7849C168.406 34.5215 167.551 35.6265 166.972 37.0998Z" fill="#012E33"/>
<path d="M96.9661 37.455V54.7795H102.452V33.3508H93.9669V37.455H96.9661Z" fill="#012E33"/>
<path d="M127.512 37.455V54.7795H132.997V33.3508H124.513V37.455H127.512Z" fill="#012E33"/>
</g>
<g id="Icon">
<mask id="path-3-inside-1_4585_269" fill="white">
<path fill-rule="evenodd" clip-rule="evenodd" d="M47.7956 59.1835C57.283 59.1835 64.974 51.4925 64.974 42.0051C64.974 32.5177 57.283 24.8267 47.7956 24.8267C38.3082 24.8267 30.6172 32.5177 30.6172 42.0051C30.6172 51.4925 38.3082 59.1835 47.7956 59.1835ZM60.4385 40.2224C58.8367 42.0955 56.5804 43.2621 54.0807 43.2621C49.2213 43.2621 45.282 38.8538 45.282 33.4159C45.282 32.0478 45.5313 30.7449 45.9819 29.5609C39.8927 30.4857 35.2266 35.7434 35.2266 42.0909C35.2266 43.9429 35.6238 45.7022 36.3377 47.2881C37.0619 46.6143 38.0797 46.1951 39.2069 46.1951C41.4052 46.1951 43.1873 47.7896 43.1873 49.7565C43.1873 51.0772 42.3838 52.23 41.1902 52.8449C43.1363 54.0619 45.4365 54.7652 47.9009 54.7652C54.9007 54.7652 60.5752 49.0907 60.5752 42.0909C60.5752 41.4561 60.5285 40.8322 60.4385 40.2224Z"/>
</mask>
<path fill-rule="evenodd" clip-rule="evenodd" d="M47.7956 59.1835C57.283 59.1835 64.974 51.4925 64.974 42.0051C64.974 32.5177 57.283 24.8267 47.7956 24.8267C38.3082 24.8267 30.6172 32.5177 30.6172 42.0051C30.6172 51.4925 38.3082 59.1835 47.7956 59.1835ZM60.4385 40.2224C58.8367 42.0955 56.5804 43.2621 54.0807 43.2621C49.2213 43.2621 45.282 38.8538 45.282 33.4159C45.282 32.0478 45.5313 30.7449 45.9819 29.5609C39.8927 30.4857 35.2266 35.7434 35.2266 42.0909C35.2266 43.9429 35.6238 45.7022 36.3377 47.2881C37.0619 46.6143 38.0797 46.1951 39.2069 46.1951C41.4052 46.1951 43.1873 47.7896 43.1873 49.7565C43.1873 51.0772 42.3838 52.23 41.1902 52.8449C43.1363 54.0619 45.4365 54.7652 47.9009 54.7652C54.9007 54.7652 60.5752 49.0907 60.5752 42.0909C60.5752 41.4561 60.5285 40.8322 60.4385 40.2224Z" fill="#012E33"/>
<path d="M60.4385 40.2224L61.6819 40.0387L61.2782 37.3064L59.4832 39.4055L60.4385 40.2224ZM45.9819 29.5609L47.1567 30.008L47.9229 27.9947L45.7932 28.3182L45.9819 29.5609ZM36.3377 47.2881L35.1915 47.804L35.9108 49.402L37.1939 48.2084L36.3377 47.2881ZM41.1902 52.8449L40.6146 51.7275L38.6507 52.7393L40.5238 53.9107L41.1902 52.8449ZM63.7171 42.0051C63.7171 50.7983 56.5888 57.9266 47.7956 57.9266V60.4405C57.9772 60.4405 66.231 52.1867 66.231 42.0051H63.7171ZM47.7956 26.0836C56.5888 26.0836 63.7171 33.2119 63.7171 42.0051H66.231C66.231 31.8235 57.9772 23.5697 47.7956 23.5697V26.0836ZM31.8741 42.0051C31.8741 33.2119 39.0024 26.0836 47.7956 26.0836V23.5697C37.614 23.5697 29.3602 31.8235 29.3602 42.0051H31.8741ZM47.7956 57.9266C39.0024 57.9266 31.8741 50.7983 31.8741 42.0051H29.3602C29.3602 52.1867 37.614 60.4405 47.7956 60.4405V57.9266ZM54.0807 44.519C56.9885 44.519 59.5809 43.1593 61.3937 41.0394L59.4832 39.4055C58.0924 41.0318 56.1723 42.0051 54.0807 42.0051V44.519ZM44.025 33.4159C44.025 39.4113 48.3979 44.519 54.0807 44.519V42.0051C50.0447 42.0051 46.5389 38.2962 46.5389 33.4159H44.025ZM44.8072 29.1138C44.3023 30.4403 44.025 31.8947 44.025 33.4159H46.5389C46.5389 32.2009 46.7603 31.0494 47.1567 30.008L44.8072 29.1138ZM36.4835 42.0909C36.4835 36.3741 40.6864 31.6366 46.1707 30.8036L45.7932 28.3182C39.0989 29.3349 33.9696 35.1128 33.9696 42.0909H36.4835ZM37.4839 46.7721C36.8416 45.3452 36.4835 43.7616 36.4835 42.0909H33.9696C33.9696 44.1243 34.406 46.0591 35.1915 47.804L37.4839 46.7721ZM39.2069 44.9381C37.7686 44.9381 36.4431 45.4732 35.4815 46.3678L37.1939 48.2084C37.6807 47.7554 38.3908 47.452 39.2069 47.452V44.9381ZM44.4443 49.7565C44.4443 46.9675 41.9643 44.9381 39.2069 44.9381V47.452C40.8461 47.452 41.9303 48.6116 41.9303 49.7565H44.4443ZM41.7659 53.9623C43.313 53.1652 44.4443 51.6165 44.4443 49.7565H41.9303C41.9303 50.5379 41.4545 51.2948 40.6146 51.7275L41.7659 53.9623ZM47.9009 53.5083C45.6789 53.5083 43.6088 52.8748 41.8567 51.7792L40.5238 53.9107C42.6639 55.2489 45.194 56.0222 47.9009 56.0222V53.5083ZM59.3183 42.0909C59.3183 48.3965 54.2065 53.5083 47.9009 53.5083V56.0222C55.5949 56.0222 61.8322 49.7849 61.8322 42.0909H59.3183ZM59.195 40.4062C59.2761 40.9553 59.3183 41.5178 59.3183 42.0909H61.8322C61.8322 41.3944 61.781 40.7091 61.6819 40.0387L59.195 40.4062Z" fill="#012E33" mask="url(#path-3-inside-1_4585_269)"/>
</g>
</g>
</g>
</svg>
