<svg width="228" height="84" viewBox="0 0 228 84" fill="none" xmlns="http://www.w3.org/2000/svg">
<g id="Frame 32">
<g id="Logo">
<g id="Text">
<g id="Greenish">
<path d="M84.4398 53.9352C82.0601 53.9352 79.9566 53.4678 78.1294 52.5329C76.3021 51.5767 74.8891 50.2275 73.8905 48.4853C72.8919 46.743 72.3926 44.6926 72.3926 42.3341C72.3926 39.9757 72.8919 37.9253 73.8905 36.183C74.8891 34.4195 76.3021 33.0703 78.1294 32.1354C79.9566 31.1793 82.0601 30.7012 84.4398 30.7012C86.0546 30.7012 87.4782 30.8712 88.7106 31.2111C89.9642 31.5298 91.1115 32.0398 92.1526 32.7409V37.3622C91.2178 36.5973 90.1448 36.0449 88.9337 35.705C87.7438 35.3437 86.384 35.1631 84.8542 35.1631C83.4306 35.1631 82.1451 35.4606 80.9978 36.0555C79.8717 36.6292 78.9793 37.4579 78.3206 38.5415C77.6619 39.6251 77.3326 40.8893 77.3326 42.3341C77.3326 43.8002 77.6301 45.0857 78.225 46.1905C78.8412 47.2742 79.7017 48.1134 80.8065 48.7083C81.9114 49.3033 83.1862 49.6007 84.6311 49.6007C85.9484 49.6007 87.0958 49.367 88.0731 48.8996V44.597H84.4717V41.0274H92.7582V51.768C90.6547 53.2128 87.8819 53.9352 84.4398 53.9352Z" fill="#012E33"/>
<path d="M93.8769 38.159H98.5301V40.3581C99.1463 39.6145 100.007 39.0514 101.112 38.669C102.217 38.2653 103.47 38.0634 104.872 38.0634V41.7286C103.406 41.7286 102.11 41.9517 100.984 42.3979C99.8793 42.8441 99.1144 43.524 98.6894 44.4376V53.4571H93.8769V38.159Z" fill="#012E33"/>
<path d="M114.121 53.9352C111.189 53.9352 108.883 53.234 107.205 51.8317C105.526 50.4081 104.687 48.4215 104.687 45.8718C104.687 43.3434 105.431 41.3461 106.918 39.8801C108.426 38.414 110.572 37.681 113.356 37.681C115.183 37.681 116.734 38.0209 118.009 38.7008C119.284 39.3807 120.251 40.3263 120.909 41.5374C121.568 42.7272 121.897 44.0764 121.897 45.585V47.5291H109.276C109.616 49.4839 111.444 50.4613 114.758 50.4613C115.736 50.4613 116.745 50.3763 117.786 50.2063C118.827 50.0363 119.73 49.8026 120.495 49.5051V52.8835C119.751 53.2022 118.795 53.4571 117.627 53.6484C116.458 53.8396 115.289 53.9352 114.121 53.9352ZM117.34 44.4058C117.276 43.3859 116.894 42.5997 116.192 42.0473C115.491 41.4736 114.524 41.1868 113.292 41.1868C112.081 41.1868 111.125 41.4736 110.424 42.0473C109.723 42.621 109.34 43.4071 109.276 44.4058H117.34Z" fill="#012E33"/>
<path d="M131.762 53.9352C128.83 53.9352 126.524 53.234 124.846 51.8317C123.167 50.4081 122.328 48.4215 122.328 45.8718C122.328 43.3434 123.072 41.3461 124.559 39.8801C126.068 38.414 128.214 37.681 130.997 37.681C132.824 37.681 134.375 38.0209 135.65 38.7008C136.925 39.3807 137.892 40.3263 138.55 41.5374C139.209 42.7272 139.538 44.0764 139.538 45.585V47.5291H126.917C127.257 49.4839 129.085 50.4613 132.399 50.4613C133.377 50.4613 134.386 50.3763 135.427 50.2063C136.468 50.0363 137.371 49.8026 138.136 49.5051V52.8835C137.392 53.2022 136.436 53.4571 135.268 53.6484C134.099 53.8396 132.931 53.9352 131.762 53.9352ZM134.981 44.4058C134.917 43.3859 134.535 42.5997 133.834 42.0473C133.132 41.4736 132.166 41.1868 130.933 41.1868C129.722 41.1868 128.766 41.4736 128.065 42.0473C127.364 42.621 126.981 43.4071 126.917 44.4058H134.981Z" fill="#012E33"/>
<path d="M140.607 38.159H145.26V40.0394C145.961 39.2533 146.79 38.669 147.746 38.2865C148.723 37.8828 149.743 37.681 150.805 37.681C152.888 37.681 154.439 38.244 155.459 39.3701C156.5 40.475 157.02 41.9729 157.02 43.8639V53.4571H152.208V44.4058C152.208 42.4297 151.294 41.4417 149.467 41.4417C148.659 41.4417 147.905 41.6436 147.204 42.0473C146.503 42.4297 145.908 43.0034 145.419 43.7683V53.4571H140.607V38.159Z" fill="#012E33"/>
<path d="M161.267 35.8006C160.523 35.8006 159.896 35.5562 159.386 35.0675C158.876 34.5788 158.621 33.9627 158.621 33.219C158.621 32.4966 158.876 31.891 159.386 31.4024C159.896 30.8924 160.523 30.6375 161.267 30.6375C162.01 30.6375 162.637 30.8924 163.147 31.4024C163.657 31.891 163.912 32.4966 163.912 33.219C163.912 33.9627 163.657 34.5788 163.147 35.0675C162.637 35.5562 162.01 35.8006 161.267 35.8006ZM158.844 38.159H163.689V53.4571H158.844V38.159Z" fill="#012E33"/>
<path d="M171.897 53.9352C170.749 53.9352 169.517 53.8077 168.199 53.5527C166.903 53.319 165.884 52.9791 165.14 52.5329V48.7721C165.99 49.282 167.01 49.6964 168.199 50.0151C169.389 50.3338 170.494 50.4931 171.514 50.4931C172.385 50.4931 173.023 50.4188 173.426 50.27C173.83 50.1213 174.032 49.8451 174.032 49.4414C174.032 49.1227 173.915 48.8677 173.681 48.6765C173.448 48.464 173.086 48.2834 172.598 48.1347C172.13 47.9647 171.344 47.7203 170.239 47.4016C168.943 47.0192 167.923 46.6367 167.18 46.2543C166.457 45.8506 165.905 45.3513 165.522 44.7563C165.161 44.1614 164.981 43.3965 164.981 42.4616C164.981 40.8681 165.607 39.6782 166.861 38.8921C168.136 38.0847 169.857 37.681 172.024 37.681C173.086 37.681 174.181 37.7978 175.307 38.0315C176.454 38.244 177.336 38.5309 177.952 38.8921V42.5572C177.336 42.1535 176.528 41.8242 175.53 41.5692C174.552 41.3143 173.596 41.1868 172.661 41.1868C171.79 41.1868 171.11 41.2718 170.622 41.4417C170.154 41.6117 169.921 41.9304 169.921 42.3979C169.921 42.8016 170.144 43.1097 170.59 43.3221C171.057 43.5346 171.918 43.8002 173.171 44.1189L173.809 44.2783C175.147 44.6395 176.188 45.0432 176.932 45.4894C177.676 45.9143 178.196 46.4349 178.494 47.0511C178.813 47.646 178.972 48.4003 178.972 49.3139C178.972 50.7162 178.366 51.8423 177.155 52.6922C175.944 53.5209 174.191 53.9352 171.897 53.9352Z" fill="#012E33"/>
<path d="M180.084 29.9044H184.897V39.9119C185.619 39.1683 186.437 38.6158 187.351 38.2546C188.265 37.8722 189.242 37.681 190.283 37.681C192.365 37.681 193.916 38.244 194.936 39.3701C195.977 40.475 196.498 41.9729 196.498 43.8639V53.4571H191.685V44.4058C191.685 42.4297 190.772 41.4417 188.945 41.4417C188.137 41.4417 187.383 41.6436 186.682 42.0473C185.981 42.4297 185.386 43.0034 184.897 43.7683V53.4571H180.084V29.9044Z" fill="#012E33"/>
</g>
</g>
<g id="Icon">
<path id="Icon_2" fill-rule="evenodd" clip-rule="evenodd" d="M55.9576 34.414C55.9576 38.4624 52.6757 41.7443 48.6272 41.7443C44.5788 41.7443 41.2969 38.4624 41.2969 34.414C41.2969 30.3655 44.5788 27.0836 48.6272 27.0836C52.6757 27.0836 55.9576 30.3655 55.9576 34.414ZM31.5768 41.2116C39.563 40.6733 46.5233 46.6526 47.1716 54.6557C47.2387 55.485 47.2355 56.3038 47.1669 57.1061C39.1807 57.6444 32.2204 51.6652 31.5721 43.6621C31.5049 42.8327 31.5082 42.014 31.5768 41.2116ZM52.3337 56.826C60.3368 56.1777 66.3161 49.2175 65.7778 41.2313C64.9754 41.1627 64.1567 41.1594 63.3273 41.2266C55.3242 41.8749 49.345 48.8351 49.8833 56.8214C50.6856 56.89 51.5044 56.8932 52.3337 56.826Z" fill="#012E33"/>
</g>
</g>
</g>
</svg>
