<svg width="228" height="84" viewBox="0 0 228 84" fill="none" xmlns="http://www.w3.org/2000/svg">
<g id="Frame 34">
<g id="logo">
<g id="icon">
<path id="Subtract" fill-rule="evenodd" clip-rule="evenodd" d="M56.8098 67.3266C70.8311 67.3266 82.1977 55.96 82.1977 41.9387C82.1977 27.9173 70.8311 16.5508 56.8098 16.5508C42.7884 16.5508 31.4219 27.9173 31.4219 41.9387C31.4219 55.96 42.7884 67.3266 56.8098 67.3266ZM58.5301 28.5975C60.6263 27.6553 63.0347 27.7035 65.0915 28.7289C68.1345 30.246 68.0711 34.6096 64.9852 36.0375L58.1389 39.2056C57.4852 39.5081 56.7289 39.4942 56.0868 39.1679L49.6507 35.8973C48.9817 35.5573 48.1637 35.8241 47.8237 36.4931C47.4837 37.1622 47.7505 37.9802 48.4195 38.3202L55.8725 42.1075C56.6149 42.4848 57.4893 42.5009 58.2451 42.1511L66.1266 38.504C71.2808 36.1189 71.3868 28.8306 66.3041 26.2966C63.5179 24.9076 60.2554 24.8423 57.4158 26.1187L43.4121 32.4134C42.4363 32.8521 41.8086 33.8224 41.8086 34.8923V39.3633C41.8086 40.3939 42.3915 41.3358 43.3138 41.7956L55.8634 48.052C56.627 48.4327 57.525 48.4327 58.2885 48.052L68.3857 43.0182C68.9557 42.7341 69.6256 43.1486 69.6256 43.7855C69.6256 44.1106 69.4417 44.4078 69.1507 44.5528L58.1248 50.0497C57.4643 50.379 56.6876 50.379 56.0271 50.0497L45.7389 44.9206C43.9321 44.0198 41.8086 45.3339 41.8086 47.3529V49.7642C41.8086 50.7947 42.3915 51.7367 43.3138 52.1964L55.868 58.4552C56.6264 58.8333 57.5177 58.836 58.2783 58.4626L67.8889 53.7441C68.5626 53.4134 68.8405 52.5991 68.5098 51.9255C68.179 51.2518 67.3648 50.9738 66.6911 51.3045L58.1245 55.5104C57.4666 55.8334 56.6957 55.8311 56.0397 55.5041L45.1239 50.0621C44.7578 49.8796 44.5263 49.5056 44.5263 49.0965C44.5263 48.2949 45.3694 47.7732 46.0868 48.1308L55.8634 53.0048C56.627 53.3855 57.525 53.3855 58.2885 53.0048L70.8381 46.7484C71.7604 46.2886 72.3433 45.3467 72.3433 44.3161V42.4001C72.3433 40.3811 70.2198 39.067 68.413 39.9678L58.1248 45.0969C57.4643 45.4262 56.6876 45.4262 56.0271 45.0969L45.8283 40.0124C45.0305 39.6147 44.5263 38.8 44.5263 37.9086V36.4129C44.5263 35.4875 45.0693 34.6482 45.9133 34.2688L58.5301 28.5975Z" fill="#012E33"/>
</g>
<g id="Ebooks">
<path d="M98.0644 34.6586V40.0712H105.333V43.5043H98.0644V49.2261H106.261V52.752H93.7344V31.1327H106.261V34.6586H98.0644Z" fill="#012E33"/>
<path d="M113.288 38.1226C113.845 37.2979 114.608 36.6277 115.577 36.1123C116.567 35.5968 117.691 35.339 118.948 35.339C120.412 35.339 121.732 35.6999 122.907 36.4215C124.103 37.1432 125.041 38.1742 125.722 39.5144C126.423 40.8341 126.773 42.3702 126.773 44.1228C126.773 45.8755 126.423 47.4322 125.722 48.7931C125.041 50.1334 124.103 51.1746 122.907 51.9169C121.732 52.6592 120.412 53.0304 118.948 53.0304C117.67 53.0304 116.546 52.7829 115.577 52.2881C114.629 51.7726 113.866 51.1128 113.288 50.3086V52.752H108.958V29.8646H113.288V38.1226ZM122.351 44.1228C122.351 43.0919 122.134 42.2052 121.701 41.463C121.289 40.7 120.732 40.1227 120.031 39.7309C119.35 39.3392 118.608 39.1433 117.804 39.1433C117.021 39.1433 116.278 39.3495 115.577 39.7619C114.897 40.1536 114.34 40.731 113.907 41.4939C113.495 42.2568 113.288 43.1537 113.288 44.1847C113.288 45.2157 113.495 46.1126 113.907 46.8755C114.34 47.6384 114.897 48.2261 115.577 48.6385C116.278 49.0302 117.021 49.2261 117.804 49.2261C118.608 49.2261 119.35 49.0199 120.031 48.6075C120.732 48.1951 121.289 47.6075 121.701 46.8446C122.134 46.0817 122.351 45.1744 122.351 44.1228Z" fill="#012E33"/>
<path d="M136.291 53.0304C134.642 53.0304 133.157 52.6695 131.838 51.9478C130.518 51.2056 129.477 50.1643 128.714 48.824C127.971 47.4838 127.6 45.9373 127.6 44.1847C127.6 42.4321 127.982 40.8856 128.745 39.5454C129.528 38.2051 130.59 37.1741 131.93 36.4525C133.271 35.7102 134.765 35.339 136.415 35.339C138.065 35.339 139.559 35.7102 140.9 36.4525C142.24 37.1741 143.292 38.2051 144.054 39.5454C144.838 40.8856 145.23 42.4321 145.23 44.1847C145.23 45.9373 144.828 47.4838 144.024 48.824C143.24 50.1643 142.168 51.2056 140.807 51.9478C139.467 52.6695 137.961 53.0304 136.291 53.0304ZM136.291 49.257C137.075 49.257 137.807 49.0715 138.487 48.7003C139.188 48.3085 139.745 47.7312 140.157 46.9683C140.57 46.2054 140.776 45.2775 140.776 44.1847C140.776 42.5558 140.343 41.3083 139.477 40.4423C138.632 39.5557 137.59 39.1124 136.353 39.1124C135.116 39.1124 134.075 39.5557 133.229 40.4423C132.405 41.3083 131.992 42.5558 131.992 44.1847C131.992 45.8136 132.394 47.0714 133.198 47.958C134.023 48.824 135.054 49.257 136.291 49.257Z" fill="#012E33"/>
<path d="M154.777 53.0304C153.128 53.0304 151.643 52.6695 150.324 51.9478C149.004 51.2056 147.963 50.1643 147.2 48.824C146.457 47.4838 146.086 45.9373 146.086 44.1847C146.086 42.4321 146.468 40.8856 147.231 39.5454C148.014 38.2051 149.076 37.1741 150.416 36.4525C151.757 35.7102 153.252 35.339 154.901 35.339C156.551 35.339 158.046 35.7102 159.386 36.4525C160.726 37.1741 161.778 38.2051 162.541 39.5454C163.324 40.8856 163.716 42.4321 163.716 44.1847C163.716 45.9373 163.314 47.4838 162.51 48.824C161.726 50.1643 160.654 51.2056 159.293 51.9478C157.953 52.6695 156.448 53.0304 154.777 53.0304ZM154.777 49.257C155.561 49.257 156.293 49.0715 156.973 48.7003C157.674 48.3085 158.231 47.7312 158.643 46.9683C159.056 46.2054 159.262 45.2775 159.262 44.1847C159.262 42.5558 158.829 41.3083 157.963 40.4423C157.118 39.5557 156.076 39.1124 154.839 39.1124C153.602 39.1124 152.561 39.5557 151.715 40.4423C150.891 41.3083 150.478 42.5558 150.478 44.1847C150.478 45.8136 150.88 47.0714 151.684 47.958C152.509 48.824 153.54 49.257 154.777 49.257Z" fill="#012E33"/>
<path d="M175.8 52.752L169.985 45.4528V52.752H165.655V29.8646H169.985V42.8857L175.738 35.6174H181.367L173.82 44.2156L181.429 52.752H175.8Z" fill="#012E33"/>
<path d="M189.037 53.0304C187.635 53.0304 186.377 52.7829 185.263 52.2881C184.15 51.7726 183.263 51.0818 182.603 50.2158C181.964 49.3498 181.614 48.391 181.552 47.3394H185.913C185.995 47.9993 186.315 48.5457 186.872 48.9787C187.449 49.4117 188.16 49.6282 189.006 49.6282C189.831 49.6282 190.47 49.4632 190.923 49.1333C191.398 48.8034 191.635 48.3807 191.635 47.8652C191.635 47.3085 191.346 46.8961 190.769 46.6281C190.212 46.3394 189.315 46.0301 188.078 45.7002C186.799 45.3909 185.748 45.0713 184.923 44.7414C184.119 44.4115 183.418 43.9063 182.82 43.2259C182.243 42.5455 181.954 41.6279 181.954 40.4732C181.954 39.5247 182.222 38.6587 182.758 37.8752C183.315 37.0917 184.098 36.4731 185.109 36.0195C186.14 35.5658 187.346 35.339 188.727 35.339C190.769 35.339 192.398 35.8545 193.614 36.8855C194.831 37.8958 195.501 39.267 195.625 40.999H191.48C191.418 40.3186 191.13 39.7825 190.614 39.3907C190.119 38.9783 189.449 38.7721 188.604 38.7721C187.82 38.7721 187.212 38.9165 186.779 39.2051C186.366 39.4938 186.16 39.8959 186.16 40.4114C186.16 40.9887 186.449 41.432 187.026 41.7413C187.604 42.03 188.501 42.329 189.717 42.6383C190.954 42.9475 191.975 43.2671 192.779 43.597C193.583 43.927 194.274 44.4424 194.851 45.1435C195.449 45.8239 195.759 46.7312 195.779 47.8652C195.779 48.855 195.501 49.7416 194.944 50.5251C194.408 51.3087 193.624 51.9272 192.593 52.3808C191.583 52.8139 190.398 53.0304 189.037 53.0304Z" fill="#012E33"/>
</g>
</g>
</g>
</svg>
