<svg width="227" height="84" viewBox="0 0 227 84" fill="none" xmlns="http://www.w3.org/2000/svg">
<g id="Frame 33">
<g id="Logo">
<g id="Glossy">
<path d="M92.0033 55.4429C89.3587 55.4429 87.048 54.8418 85.0712 53.6397C83.0944 52.4376 81.5584 50.7681 80.4632 48.631C79.3679 46.4672 78.8203 43.9562 78.8203 41.0979C78.8203 38.2129 79.3813 35.6751 80.5032 33.4846C81.6519 31.2675 83.2681 29.5445 85.3517 28.3157C87.462 27.0601 89.9597 26.4324 92.8447 26.4324C96.1304 26.4324 98.8552 27.2204 101.019 28.7965C103.183 30.3726 104.585 32.5497 105.226 35.3279H99.4963C99.0689 34.0189 98.2942 33.0038 97.1723 32.2826C96.0503 31.5346 94.6078 31.1606 92.8447 31.1606C90.0398 31.1606 87.8761 32.0555 86.3534 33.8453C84.8308 35.6083 84.0694 38.0392 84.0694 41.138C84.0694 44.2367 84.8174 46.6409 86.3134 48.3505C87.836 50.0335 89.8929 50.8749 92.4841 50.8749C95.0218 50.8749 96.9318 50.1937 98.2141 48.8314C99.523 47.4423 100.311 45.6258 100.578 43.3819H93.4858V39.5352H105.747V54.962H101.019L100.618 51.2756C99.71 52.6113 98.5747 53.6397 97.2123 54.361C95.85 55.0822 94.1136 55.4429 92.0033 55.4429Z" fill="#012E33"/>
<path d="M108.61 54.962V26.1118H113.739V54.962H108.61Z" fill="#012E33"/>
<path d="M126.512 55.4429C124.589 55.4429 122.853 55.0021 121.303 54.1206C119.781 53.239 118.565 52.0236 117.657 50.4742C116.775 48.8981 116.335 47.0816 116.335 45.0247C116.335 42.9678 116.789 41.1647 117.697 39.6153C118.605 38.0392 119.821 36.8104 121.343 35.9289C122.893 35.0474 124.629 34.6066 126.552 34.6066C128.449 34.6066 130.159 35.0474 131.681 35.9289C133.231 36.8104 134.446 38.0392 135.328 39.6153C136.236 41.1647 136.69 42.9678 136.69 45.0247C136.69 47.0816 136.236 48.8981 135.328 50.4742C134.446 52.0236 133.231 53.239 131.681 54.1206C130.132 55.0021 128.409 55.4429 126.512 55.4429ZM126.512 50.9951C127.848 50.9951 129.01 50.5009 129.998 49.5125C130.987 48.4974 131.481 47.0015 131.481 45.0247C131.481 43.048 130.987 41.5654 129.998 40.577C129.01 39.5619 127.861 39.0543 126.552 39.0543C125.19 39.0543 124.015 39.5619 123.026 40.577C122.065 41.5654 121.584 43.048 121.584 45.0247C121.584 47.0015 122.065 48.4974 123.026 49.5125C124.015 50.5009 125.177 50.9951 126.512 50.9951Z" fill="#012E33"/>
<path d="M147.487 55.4429C145.724 55.4429 144.174 55.1624 142.839 54.6014C141.503 54.0137 140.434 53.2123 139.633 52.1972C138.832 51.1821 138.351 50.0067 138.191 48.6711H143.36C143.52 49.4458 143.947 50.1136 144.642 50.6746C145.363 51.2088 146.285 51.476 147.407 51.476C148.529 51.476 149.343 51.2489 149.851 50.7948C150.385 50.3407 150.652 49.8197 150.652 49.2321C150.652 48.3772 150.278 47.8029 149.53 47.5091C148.782 47.1885 147.74 46.8813 146.405 46.5875C145.55 46.4005 144.682 46.1734 143.8 45.9063C142.919 45.6391 142.104 45.3052 141.356 44.9045C140.635 44.4771 140.047 43.9429 139.593 43.3017C139.139 42.6339 138.912 41.8192 138.912 40.8575C138.912 39.0944 139.606 37.6118 140.995 36.4097C142.411 35.2076 144.388 34.6066 146.926 34.6066C149.276 34.6066 151.146 35.1542 152.535 36.2495C153.951 37.3447 154.793 38.854 155.06 40.7773H150.211C149.918 39.3081 148.809 38.5735 146.886 38.5735C145.924 38.5735 145.176 38.7605 144.642 39.1345C144.134 39.5085 143.88 39.9759 143.88 40.5369C143.88 41.1246 144.268 41.5921 145.042 41.9394C145.817 42.2866 146.846 42.6072 148.128 42.901C149.517 43.2216 150.786 43.5822 151.934 43.9829C153.11 44.3569 154.045 44.9312 154.739 45.7059C155.434 46.4539 155.781 47.5358 155.781 48.9516C155.808 50.1804 155.487 51.289 154.819 52.2774C154.152 53.2657 153.19 54.0404 151.934 54.6014C150.679 55.1624 149.196 55.4429 147.487 55.4429Z" fill="#012E33"/>
<path d="M166.535 55.4429C164.772 55.4429 163.223 55.1624 161.887 54.6014C160.552 54.0137 159.483 53.2123 158.682 52.1972C157.88 51.1821 157.4 50.0067 157.239 48.6711H162.408C162.569 49.4458 162.996 50.1136 163.691 50.6746C164.412 51.2088 165.333 51.476 166.455 51.476C167.577 51.476 168.392 51.2489 168.9 50.7948C169.434 50.3407 169.701 49.8197 169.701 49.2321C169.701 48.3772 169.327 47.8029 168.579 47.5091C167.831 47.1885 166.789 46.8813 165.454 46.5875C164.599 46.4005 163.731 46.1734 162.849 45.9063C161.968 45.6391 161.153 45.3052 160.405 44.9045C159.684 44.4771 159.096 43.9429 158.642 43.3017C158.188 42.6339 157.961 41.8192 157.961 40.8575C157.961 39.0944 158.655 37.6118 160.044 36.4097C161.46 35.2076 163.437 34.6066 165.975 34.6066C168.325 34.6066 170.195 35.1542 171.584 36.2495C173 37.3447 173.842 38.854 174.109 40.7773H169.26C168.966 39.3081 167.858 38.5735 165.934 38.5735C164.973 38.5735 164.225 38.7605 163.691 39.1345C163.183 39.5085 162.929 39.9759 162.929 40.5369C162.929 41.1246 163.317 41.5921 164.091 41.9394C164.866 42.2866 165.894 42.6072 167.177 42.901C168.566 43.2216 169.835 43.5822 170.983 43.9829C172.159 44.3569 173.094 44.9312 173.788 45.7059C174.483 46.4539 174.83 47.5358 174.83 48.9516C174.857 50.1804 174.536 51.289 173.868 52.2774C173.2 53.2657 172.239 54.0404 170.983 54.6014C169.728 55.1624 168.245 55.4429 166.535 55.4429Z" fill="#012E33"/>
<path d="M178.798 63.7774L183.406 53.6397H182.204L174.47 35.0874H180.04L185.61 49.0718L191.42 35.0874H196.869L184.247 63.7774H178.798Z" fill="#012E33"/>
</g>
<g id="icon">
<path d="M41.0651 51.7515L61.2814 31.5352L57.9569 28.2108L37.7407 48.4271L41.0651 51.7515Z" fill="#012E33"/>
<path d="M49.0576 31.5352L41.0651 39.5277L37.7407 36.2033L45.7331 28.2108L49.0576 31.5352Z" fill="#012E33"/>
<path d="M53.2889 51.7515L61.2814 43.759L57.9569 40.4346L49.9645 48.4271L53.2889 51.7515Z" fill="#012E33"/>
<path fill-rule="evenodd" clip-rule="evenodd" d="M30 59.4923V20H69.4923V59.4923H30ZM34.7015 24.7015H64.7908V54.7908H34.7015V24.7015Z" fill="#012E33"/>
</g>
</g>
</g>
</svg>
