<svg width="227" height="84" viewBox="0 0 227 84" fill="none" xmlns="http://www.w3.org/2000/svg">
<path d="M48.3428 65.1797H32.9904L48.3428 41.9638H63.6953L48.3428 65.1797Z" fill="#012E33"/>
<path d="M42.7269 18H58.4538L42.7269 41.9648H27L42.7269 18Z" fill="#012E33"/>
<path d="M95.0164 38.1966C95.0164 39.6203 94.6732 40.9551 93.9868 42.2008C93.3257 43.4466 92.2707 44.4508 90.8215 45.2135C89.3978 45.9762 87.5927 46.3576 85.4063 46.3576H80.9444V56.5779H75.6055V29.9593H85.4063C87.4656 29.9593 89.2198 30.3153 90.669 31.0271C92.1181 31.739 93.1986 32.7178 93.9105 33.9636C94.6478 35.2093 95.0164 36.6203 95.0164 38.1966ZM85.1775 42.0483C86.652 42.0483 87.7453 41.7178 88.4571 41.0568C89.169 40.3703 89.5249 39.4169 89.5249 38.1966C89.5249 35.6034 88.0758 34.3068 85.1775 34.3068H80.9444V42.0483H85.1775Z" fill="#012E33"/>
<path d="M102.621 38.7305C103.307 37.6119 104.197 36.7347 105.29 36.0991C106.409 35.4636 107.68 35.1458 109.104 35.1458V40.7517H107.693C106.015 40.7517 104.743 41.1457 103.879 41.9339C103.04 42.722 102.621 44.0949 102.621 46.0525V56.5779H97.2816V35.4508H102.621V38.7305Z" fill="#012E33"/>
<path d="M120.556 56.9211C118.522 56.9211 116.691 56.4762 115.064 55.5864C113.437 54.6711 112.153 53.3872 111.212 51.7347C110.297 50.0821 109.839 48.1754 109.839 46.0144C109.839 43.8534 110.31 41.9466 111.251 40.294C112.217 38.6415 113.526 37.3703 115.178 36.4805C116.831 35.5652 118.674 35.1076 120.708 35.1076C122.742 35.1076 124.585 35.5652 126.238 36.4805C127.89 37.3703 129.187 38.6415 130.128 40.294C131.094 41.9466 131.577 43.8534 131.577 46.0144C131.577 48.1754 131.081 50.0821 130.089 51.7347C129.123 53.3872 127.801 54.6711 126.123 55.5864C124.471 56.4762 122.615 56.9211 120.556 56.9211ZM120.556 52.2686C121.522 52.2686 122.424 52.0398 123.263 51.5821C124.128 51.0991 124.814 50.3872 125.322 49.4466C125.831 48.5059 126.085 47.3618 126.085 46.0144C126.085 44.0059 125.551 42.4678 124.484 41.4C123.441 40.3068 122.157 39.7602 120.632 39.7602C119.106 39.7602 117.823 40.3068 116.78 41.4C115.763 42.4678 115.255 44.0059 115.255 46.0144C115.255 48.0228 115.75 49.5737 116.742 50.6669C117.759 51.7347 119.03 52.2686 120.556 52.2686Z" fill="#012E33"/>
<path d="M139.307 52.3449H145.04V56.5779H133.968V26.6797H139.307V52.3449Z" fill="#012E33"/>
<path d="M149.182 32.9339C148.241 32.9339 147.453 32.6415 146.817 32.0568C146.207 31.4466 145.902 30.6966 145.902 29.8068C145.902 28.917 146.207 28.1797 146.817 27.5949C147.453 26.9848 148.241 26.6797 149.182 26.6797C150.122 26.6797 150.898 26.9848 151.508 27.5949C152.143 28.1797 152.461 28.917 152.461 29.8068C152.461 30.6966 152.143 31.4466 151.508 32.0568C150.898 32.6415 150.122 32.9339 149.182 32.9339ZM151.813 35.4508V56.5779H146.474V35.4508H151.813Z" fill="#012E33"/>
<path d="M167.27 35.1458C169.787 35.1458 171.821 35.9466 173.372 37.5483C174.923 39.1246 175.698 41.3364 175.698 44.1839V56.5779H170.359V44.9084C170.359 43.2305 169.939 41.9466 169.101 41.0568C168.262 40.1415 167.117 39.6839 165.668 39.6839C164.194 39.6839 163.024 40.1415 162.16 41.0568C161.321 41.9466 160.901 43.2305 160.901 44.9084V56.5779H155.562V35.4508H160.901V38.0822C161.613 37.1669 162.516 36.4551 163.609 35.9466C164.728 35.4127 165.948 35.1458 167.27 35.1458Z" fill="#012E33"/>
<path d="M198.889 45.5567C198.889 46.3195 198.839 47.0059 198.737 47.6161H183.292C183.419 49.1415 183.953 50.3364 184.894 51.2008C185.834 52.0652 186.991 52.4974 188.364 52.4974C190.347 52.4974 191.758 51.6457 192.597 49.9423H198.355C197.745 51.9762 196.576 53.6542 194.847 54.9762C193.118 56.2728 190.995 56.9211 188.478 56.9211C186.445 56.9211 184.614 56.4762 182.987 55.5864C181.385 54.6711 180.127 53.3872 179.211 51.7347C178.322 50.0821 177.877 48.1754 177.877 46.0144C177.877 43.8279 178.322 41.9084 179.211 40.2559C180.101 38.6034 181.347 37.3322 182.949 36.4424C184.55 35.5525 186.394 35.1076 188.478 35.1076C190.487 35.1076 192.279 35.5398 193.855 36.4042C195.457 37.2686 196.69 38.5017 197.555 40.1034C198.444 41.6796 198.889 43.4974 198.889 45.5567ZM193.36 44.0313C193.334 42.6584 192.839 41.5652 191.872 40.7517C190.906 39.9127 189.724 39.4932 188.326 39.4932C187.004 39.4932 185.885 39.9 184.97 40.7135C184.08 41.5017 183.533 42.6076 183.33 44.0313H193.36Z" fill="#012E33"/>
</svg>
