<svg width="167" height="39" viewBox="0 0 167 39" fill="none" xmlns="http://www.w3.org/2000/svg">
<path d="M166.945 37.3953C163.07 38.2361 159.578 38.6566 156.471 38.6566C153.363 38.6566 150.877 38.2727 149.012 37.5049C147.148 36.7372 145.685 35.5124 144.625 33.8306C143.565 32.1488 142.834 30.1746 142.431 27.9078C142.029 25.6411 141.828 22.7894 141.828 19.3527C141.828 12.1503 142.834 7.14149 144.844 4.32634C146.892 1.47462 150.639 0.0487671 156.087 0.0487671C159.231 0.0487671 162.869 0.542333 167 1.52947L166.781 7.56194C163.161 7.01353 160.145 6.73932 157.732 6.73932C155.355 6.73932 153.655 7.06837 152.632 7.72646C151.608 8.34798 150.84 9.55448 150.328 11.3459C149.853 13.1374 149.615 16.1902 149.615 20.5043C149.615 24.8185 150.109 27.8164 151.096 29.4982C152.12 31.1434 154.131 31.966 157.129 31.966C160.163 31.966 163.381 31.7101 166.781 31.1983L166.945 37.3953Z" fill="#FFF6ED"/>
<path d="M129.811 38.4529V1.16121H137.379V38.4529H129.811Z" fill="#FFF6ED"/>
<path d="M78.7664 38.4529V1.16121H86.3344V38.4529H78.7664Z" fill="#FFF6ED"/>
<path d="M35.3799 38.4529V1.16121H48.2674L54.8483 28.3622L61.4292 1.16121H74.3167V38.4529H66.7487V9.60667H65.9261L58.6323 36.8076H51.0643L43.7705 9.60667H42.9479V38.4529H35.3799Z" fill="#FFF6ED"/>
<path d="M9.37775 29.224C10.4746 31.1251 12.5037 32.0757 15.4651 32.0757C18.4265 32.0757 20.4373 31.1251 21.4975 29.224C22.5943 27.2863 23.1428 24.069 23.1428 19.572C23.1428 15.0385 22.5943 11.7481 21.4975 9.70072C20.4007 7.65334 18.3899 6.62964 15.4651 6.62964C12.5402 6.62964 10.5294 7.65334 9.43259 9.70072C8.33578 11.7481 7.78737 15.0385 7.78737 19.572C7.78737 24.069 8.3175 27.2863 9.37775 29.224ZM27.4203 34.05C25.117 37.121 21.1319 38.6566 15.4651 38.6566C9.7982 38.6566 5.79483 37.121 3.45496 34.05C1.15165 30.9423 0 26.0981 0 19.5172C0 12.9363 1.15165 8.0555 3.45496 4.87474C5.79483 1.65743 9.7982 0.0487671 15.4651 0.0487671C21.1319 0.0487671 25.117 1.65743 27.4203 4.87474C29.7602 8.0555 30.9301 12.9363 30.9301 19.5172C30.9301 26.0981 29.7602 30.9423 27.4203 34.05Z" fill="#FFF6ED"/>
<path d="M109.332 0.0487671C112.586 0.0487908 115.266 0.399625 117.374 1.10052C119.482 1.76459 121.109 2.88915 122.256 4.47552C123.439 6.02501 124.252 7.86994 124.696 10.0097C125.14 12.1126 125.361 14.8616 125.361 18.2558C125.361 21.6498 125.158 24.4722 124.751 26.7226C124.344 28.9361 123.568 30.9284 122.422 32.6992C121.312 34.433 119.685 35.7059 117.541 36.5175C115.396 37.2922 112.66 37.6796 109.332 37.6796H97.1403C96.8583 37.6796 96.6298 37.4511 96.6298 37.1691V31.5485C96.6298 31.2666 96.8583 31.038 97.1403 31.038H104.284C104.284 31.038 104.284 31.0382 104.284 31.0385V31.0385C104.284 31.0388 104.284 31.039 104.285 31.039H109.332C112.105 31.0389 114.121 30.3374 115.378 28.9355C116.45 27.7918 117.115 25.726 117.374 22.7382C117.448 21.5577 117.485 19.9341 117.485 17.8681C117.485 15.7652 117.411 14.0863 117.264 12.832C117.116 11.5778 116.764 10.4342 116.21 9.40131C115.655 8.36835 114.823 7.66673 113.714 7.29779C112.641 6.89199 111.181 6.68942 109.332 6.68939H104.513C104.513 6.68939 104.513 6.68917 104.513 6.6889V6.6889C104.513 6.68863 104.512 6.68842 104.512 6.68842H97.1403C96.8583 6.68842 96.6298 6.45986 96.6298 6.17792V0.55926C96.6298 0.277322 96.8583 0.0487671 97.1403 0.0487671H109.332Z" fill="#FFF6ED"/>
<path d="M103.243 15.0498C103.243 15.3306 103.471 15.5584 103.752 15.5584H108.582C108.863 15.5584 109.091 15.7861 109.091 16.0669V21.6611C109.091 21.942 108.863 22.1697 108.582 22.1697H103.752C103.471 22.1697 103.243 22.3974 103.243 22.6783V27.5087C103.243 27.7896 103.015 28.0173 102.734 28.0173H97.1403C96.8594 28.0173 96.6317 27.7896 96.6317 27.5087V22.6783C96.6317 22.3974 96.404 22.1697 96.1231 22.1697H91.2927C91.0118 22.1697 90.7841 21.942 90.7841 21.6611V16.0669C90.7841 15.7861 91.0118 15.5584 91.2927 15.5584H96.1231C96.404 15.5584 96.6317 15.3306 96.6317 15.0498V10.2193C96.6317 9.9384 96.8594 9.7107 97.1403 9.7107H102.734C103.015 9.7107 103.243 9.9384 103.243 10.2193V15.0498Z" fill="#E78F5D"/>
</svg>
