<svg width="256" height="256" viewBox="0 0 256 256" fill="none" xmlns="http://www.w3.org/2000/svg">
<rect width="256" height="256" fill="#FFF6ED"/>
<path d="M29.6045 106.084C33.3943 106.084 36.5169 106.492 38.9717 107.309C41.4264 108.082 43.3212 109.393 44.6562 111.24C46.0344 113.045 46.9822 115.193 47.499 117.686C48.0158 120.135 48.2744 123.336 48.2744 127.289C48.2744 131.242 48.0372 134.529 47.5635 137.15C47.0897 139.729 46.1847 142.049 44.8496 144.111C43.5576 146.131 41.6629 147.613 39.165 148.559C36.6672 149.461 33.4804 149.912 29.6045 149.912H15.463C15.1026 149.912 14.8105 149.62 14.8105 149.26V142.829C14.8105 142.469 15.1026 142.177 15.463 142.177H23.7251C23.7254 142.177 23.7256 142.177 23.7256 142.177V142.177C23.7256 142.178 23.7258 142.178 23.7261 142.178H29.6045C32.8343 142.178 35.1813 141.361 36.6455 139.729C37.8945 138.396 38.6702 135.99 38.9717 132.51C39.0578 131.135 39.1006 129.244 39.1006 126.838C39.1006 124.389 39.0141 122.434 38.8418 120.973C38.6695 119.512 38.2612 118.18 37.6152 116.977C36.9693 115.774 35.9999 114.957 34.708 114.527C33.4591 114.055 31.7577 113.818 29.6045 113.818H23.9917C23.9914 113.818 23.9912 113.818 23.9912 113.818V113.818C23.9912 113.818 23.991 113.817 23.9907 113.817H15.463C15.1026 113.817 14.8105 113.525 14.8105 113.165V106.736C14.8105 106.376 15.1026 106.084 15.463 106.084H29.6045Z" fill="#012E33"/>
<path d="M22.5107 123.499C22.5107 123.858 22.8018 124.149 23.1607 124.149H28.6723C29.0313 124.149 29.3223 124.44 29.3223 124.799V131.199C29.3223 131.558 29.0313 131.849 28.6723 131.849H23.1607C22.8018 131.849 22.5107 132.14 22.5107 132.499V138.01C22.5107 138.369 22.2197 138.66 21.8607 138.66H15.4615C15.1025 138.66 14.8115 138.369 14.8115 138.01V132.499C14.8115 132.14 14.5205 131.849 14.1615 131.849H8.65C8.29102 131.849 8 131.558 8 131.199V124.799C8 124.44 8.29101 124.149 8.65 124.149H14.1615C14.5205 124.149 14.8115 123.858 14.8115 123.499V117.988C14.8115 117.629 15.1025 117.338 15.4615 117.338H21.8607C22.2197 117.338 22.5107 117.629 22.5107 117.988V123.499Z" fill="#E78F5D"/>
<path d="M212.357 151.177V105.529H227.998L239.007 143.121H239.678V105.529H248.942V151.177H233.704L222.292 113.585H221.621V151.177H212.357Z" fill="#012E33"/>
<path d="M177.296 135.938C177.296 141.264 180.003 143.927 185.418 143.927C190.833 143.927 193.541 141.264 193.541 135.938V105.529H202.805V135.737C202.805 141.331 201.35 145.448 198.441 148.089C195.577 150.684 191.236 151.982 185.418 151.982C179.601 151.982 175.237 150.684 172.328 148.089C169.464 145.448 168.032 141.331 168.032 135.737V105.529H177.296V135.938Z" fill="#012E33"/>
<path d="M163.078 151.177H137.1V105.529H146.363V142.987H163.078V151.177Z" fill="#012E33"/>
<path d="M129.584 150.437C124.84 151.466 120.566 151.981 116.762 151.981C112.958 151.981 109.915 151.511 107.633 150.571C105.35 149.631 103.56 148.132 102.262 146.074C100.965 144.015 100.07 141.598 99.5773 138.824C99.085 136.049 98.8389 132.559 98.8389 128.352C98.8389 119.536 100.07 113.405 102.531 109.959C105.037 106.468 109.624 104.723 116.292 104.723C120.141 104.723 124.594 105.327 129.651 106.535L129.382 113.919C124.952 113.248 121.26 112.912 118.306 112.912C115.397 112.912 113.316 113.315 112.063 114.121C110.81 114.881 109.87 116.358 109.244 118.551C108.662 120.744 108.371 124.481 108.371 129.762C108.371 135.042 108.975 138.712 110.184 140.771C111.437 142.784 113.898 143.791 117.568 143.791C121.282 143.791 125.22 143.478 129.382 142.852L129.584 150.437Z" fill="#012E33"/>
<path d="M66.3261 140.435C67.6687 142.762 70.1524 143.926 73.7773 143.926C77.4023 143.926 79.8636 142.762 81.1615 140.435C82.504 138.063 83.1753 134.125 83.1753 128.62C83.1753 123.071 82.504 119.043 81.1615 116.537C79.8189 114.031 77.3575 112.778 73.7773 112.778C70.1972 112.778 67.7358 114.031 66.3932 116.537C65.0507 119.043 64.3794 123.071 64.3794 128.62C64.3794 134.125 65.0283 138.063 66.3261 140.435ZM88.4113 146.342C85.5919 150.101 80.7139 151.981 73.7773 151.981C66.8408 151.981 61.9404 150.101 59.0763 146.342C56.2569 142.538 54.8472 136.609 54.8472 128.553C54.8472 120.498 56.2569 114.523 59.0763 110.63C61.9404 106.692 66.8408 104.723 73.7773 104.723C80.7139 104.723 85.5919 106.692 88.4113 110.63C91.2755 114.523 92.7075 120.498 92.7075 128.553C92.7075 136.609 91.2755 142.538 88.4113 146.342Z" fill="#012E33"/>
</svg>
