<svg width="32" height="32" viewBox="0 0 32 32" fill="none" xmlns="http://www.w3.org/2000/svg">
<rect width="32" height="32" fill="#FFF6ED"/>
<path d="M16.8701 0.587891C19.5358 0.587891 21.7323 0.874989 23.459 1.44922C25.1855 1.99324 26.518 2.91534 27.457 4.21484C28.4263 5.48417 29.0926 6.99518 29.4561 8.74805C29.8196 10.4707 30.002 12.7224 30.002 15.5029C30.0019 18.2831 29.8351 20.595 29.502 22.4385C29.1687 24.2518 28.5328 25.8843 27.5938 27.335C26.685 28.7554 25.3517 29.798 23.5947 30.4629C21.8378 31.0975 19.5963 31.415 16.8701 31.415H6.92374C6.6703 31.415 6.46484 31.2096 6.46484 30.9561V26.4335C6.46484 26.1801 6.6703 25.9746 6.92374 25.9746H16.8701C19.142 25.9746 20.7933 25.4004 21.8232 24.252C22.7015 23.315 23.247 21.6226 23.459 19.1748C23.5196 18.2077 23.5498 16.8779 23.5498 15.1855C23.5498 13.4629 23.4893 12.0871 23.3682 11.0596C23.247 10.0322 22.9592 9.09514 22.5049 8.24902C22.0505 7.40286 21.3686 6.82859 20.46 6.52637C19.5815 6.19392 18.3847 6.02832 16.8701 6.02832H12.9224C12.9221 6.02832 12.9219 6.0281 12.9219 6.02783V6.02783C12.9219 6.02756 12.9217 6.02734 12.9214 6.02734H6.92374C6.6703 6.02734 6.46484 5.82189 6.46484 5.56845V1.04678C6.46484 0.793343 6.6703 0.587891 6.92374 0.587891H16.8701Z" fill="#012E33"/>
<path d="M11.8804 12.8377C11.8804 13.0902 12.0851 13.2949 12.3376 13.2949H16.2142C16.4667 13.2949 16.6714 13.4996 16.6714 13.7521V18.2528C16.6714 18.5053 16.4667 18.71 16.2142 18.71H12.3376C12.0851 18.71 11.8804 18.9146 11.8804 19.1671V23.0438C11.8804 23.2963 11.6757 23.501 11.4232 23.501H6.92252C6.67002 23.501 6.46533 23.2963 6.46533 23.0438V19.1671C6.46533 18.9147 6.26064 18.71 6.00815 18.71H2.1315C1.87901 18.71 1.67432 18.5053 1.67432 18.2528V13.7521C1.67432 13.4996 1.87901 13.2949 2.1315 13.2949H6.00815C6.26064 13.2949 6.46533 13.0902 6.46533 12.8377V8.96109C6.46533 8.7086 6.67002 8.50391 6.92252 8.50391H11.4232C11.6757 8.50391 11.8804 8.7086 11.8804 8.96109V12.8377Z" fill="#E78F5D"/>
</svg>
