<svg width="151" height="35" viewBox="0 0 151 35" fill="none" xmlns="http://www.w3.org/2000/svg">
<path d="M150.07 33.5715C146.587 34.3274 143.448 34.7054 140.655 34.7054C137.861 34.7054 135.626 34.3603 133.95 33.6701C132.274 32.9799 130.959 31.879 130.006 30.3672C129.053 28.8554 128.396 27.0807 128.034 25.0431C127.673 23.0054 127.492 20.442 127.492 17.3527C127.492 10.8783 128.396 6.3758 130.204 3.8452C132.044 1.28173 135.413 0 140.31 0C143.136 0 146.406 0.443677 150.12 1.33103L149.923 6.75374C146.669 6.26077 143.958 6.01428 141.788 6.01428C139.652 6.01428 138.124 6.31006 137.204 6.90163C136.284 7.46034 135.593 8.54488 135.133 10.1553C134.706 11.7656 134.492 14.5099 134.492 18.3879C134.492 22.266 134.936 24.9609 135.823 26.4727C136.744 27.9516 138.551 28.6911 141.246 28.6911C143.974 28.6911 146.866 28.461 149.923 28.0009L150.07 33.5715Z" fill="#012E33"/>
<path d="M116.689 34.5222V1H123.492V34.5222H116.689Z" fill="#012E33"/>
<path d="M70.8047 34.5222V1H77.6077V34.5222H70.8047Z" fill="#012E33"/>
<path d="M31.8037 34.5222V1H43.3886L49.3043 25.4515L55.22 1H66.8048V34.5222H60.0018V8.59179H59.2623L52.7058 33.0433H45.9028L39.3462 8.59179H38.6067V34.5222H31.8037Z" fill="#012E33"/>
<path d="M8.42985 26.2262C9.4158 27.9352 11.2398 28.7897 13.9019 28.7897C16.5639 28.7897 18.3715 27.9352 19.3246 26.2262C20.3105 24.4844 20.8035 21.5923 20.8035 17.5499C20.8035 13.4746 20.3105 10.5168 19.3246 8.67634C18.3386 6.8359 16.5311 5.91568 13.9019 5.91568C11.2727 5.91568 9.4651 6.8359 8.47915 8.67634C7.4932 10.5168 7.00023 13.4746 7.00023 17.5499C7.00023 21.5923 7.47677 24.4844 8.42985 26.2262ZM24.6487 30.5644C22.5782 33.325 18.9959 34.7054 13.9019 34.7054C8.8078 34.7054 5.20909 33.325 3.10573 30.5644C1.03524 27.7709 0 23.4163 0 17.5006C0 11.5849 1.03524 7.19742 3.10573 4.33817C5.20909 1.44606 8.8078 0 13.9019 0C18.9959 0 22.5782 1.44606 24.6487 4.33817C26.752 7.19742 27.8037 11.5849 27.8037 17.5006C27.8037 23.4163 26.752 27.7709 24.6487 30.5644Z" fill="#012E33"/>
<path d="M98.2803 0C101.205 3.34884e-06 103.615 0.315224 105.51 0.945312C107.404 1.54224 108.867 2.55354 109.897 3.97949C110.961 5.37236 111.693 7.03062 112.092 8.9541C112.491 10.8444 112.689 13.3152 112.689 16.3662C112.689 19.4173 112.507 21.9545 112.142 23.9775C111.776 25.9673 111.077 27.7578 110.047 29.3496C109.05 30.9083 107.587 32.0526 105.659 32.7822C103.731 33.4786 101.272 33.8271 98.2803 33.8271H87.3212C87.0678 33.8271 86.8623 33.6217 86.8623 33.3683V28.3163C86.8623 28.0629 87.0678 27.8574 87.3212 27.8574H98.2803C100.773 27.8574 102.585 27.227 103.715 25.9668C104.679 24.9387 105.277 23.0816 105.51 20.3955C105.576 19.3344 105.609 17.8754 105.609 16.0186C105.609 14.1282 105.543 12.6188 105.41 11.4912C105.277 10.3637 104.961 9.33576 104.463 8.40723C103.964 7.47864 103.216 6.84824 102.219 6.5166C101.255 6.1519 99.942 5.96973 98.2803 5.96973H93.9487C93.9485 5.96973 93.9482 5.96951 93.9482 5.96924C93.9482 5.96897 93.948 5.96875 93.9478 5.96875H87.3212C87.0678 5.96875 86.8623 5.7633 86.8623 5.50986V0.458892C86.8623 0.205453 87.0678 0 87.3212 0H98.2803Z" fill="#012E33"/>
<path d="M92.8066 13.4852C92.8066 13.7377 93.0113 13.9424 93.2638 13.9424H97.6063C97.8588 13.9424 98.0635 14.1471 98.0635 14.3996V19.4276C98.0635 19.6801 97.8588 19.8848 97.6063 19.8848H93.2638C93.0113 19.8848 92.8066 20.0895 92.8066 20.342V24.6844C92.8066 24.9369 92.602 25.1416 92.3495 25.1416H87.3214C87.0689 25.1416 86.8643 24.9369 86.8643 24.6844V20.342C86.8643 20.0895 86.6596 19.8848 86.4071 19.8848H82.0646C81.8121 19.8848 81.6074 19.6801 81.6074 19.4276V14.3996C81.6074 14.1471 81.8121 13.9424 82.0646 13.9424H86.4071C86.6596 13.9424 86.8643 13.7377 86.8643 13.4852V9.14273C86.8643 8.89024 87.0689 8.68555 87.3214 8.68555H92.3495C92.602 8.68555 92.8066 8.89024 92.8066 9.14273V13.4852Z" fill="#E78F5D"/>
</svg>
